HIERARCHY
ROOT Hips
{
  OFFSET 0.000000 95.000000 0.000000
  CHANNELS 6 Xposition Yposition Zposition Zrotation Xrotation Yrotation
  JOINT Spine
  {
    OFFSET 0.000000 10.000000 0.000000
    CHANNELS 3 Zrotation Xrotation Yrotation
    JOINT Spine1
    {
      OFFSET 0.000000 12.000000 0.000000
      CHANNELS 3 Zrotation Xrotation Yrotation
      JOINT Spine2
      {
        OFFSET 0.000000 12.000000 0.000000
        CHANNELS 3 Zrotation Xrotation Yrotation
        JOINT Neck
        {
          OFFSET 0.000000 10.000000 0.000000
          CHANNELS 3 Zrotation Xrotation Yrotation
          JOINT Head
          {
            OFFSET 0.000000 8.000000 0.000000
            CHANNELS 3 Zrotation Xrotation Yrotation
            End Site
            {
              OFFSET 0.000000 10.000000 0.000000
            }
          }
        }
        JOINT LeftShoulder
        {
          OFFSET 6.000000 8.000000 0.000000
          CHANNELS 3 Zrotation Xrotation Yrotation
          JOINT LeftArm
          {
            OFFSET 12.000000 0.000000 0.000000
            CHANNELS 3 Zrotation Xrotation Yrotation
            JOINT LeftForeArm
            {
              OFFSET 24.000000 0.000000 0.000000
              CHANNELS 3 Zrotation Xrotation Yrotation
              JOINT LeftHand
              {
                OFFSET 22.000000 0.000000 0.000000
                CHANNELS 3 Zrotation Xrotation Yrotation
                JOINT LeftHandThumb1
                {
                  OFFSET 1.800000 -1.400000 0.500000
                  CHANNELS 3 Zrotation Xrotation Yrotation
                  JOINT LeftHandThumb2
                  {
                    OFFSET 2.400000 0.000000 0.000000
                    CHANNELS 3 Zrotation Xrotation Yrotation
                    JOINT LeftHandThumb3
                    {
                      OFFSET 1.900000 0.000000 0.000000
                      CHANNELS 3 Zrotation Xrotation Yrotation
                      End Site
                      {
                        OFFSET 1.600000 0.000000 0.000000
                      }
                    }
                  }
                }
                JOINT LeftHandIndex1
                {
                  OFFSET 6.600000 1.200000 0.300000
                  CHANNELS 3 Zrotation Xrotation Yrotation
                  JOINT LeftHandIndex2
                  {
                    OFFSET 2.000000 0.000000 0.000000
                    CHANNELS 3 Zrotation Xrotation Yrotation
                    JOINT LeftHandIndex3
                    {
                      OFFSET 1.200000 0.000000 0.000000
                      CHANNELS 3 Zrotation Xrotation Yrotation
                      End Site
                      {
                        OFFSET 1.000000 0.000000 0.000000
                      }
                    }
                  }
                }
                JOINT LeftHandMiddle1
                {
                  OFFSET 7.200000 0.000000 0.300000
                  CHANNELS 3 Zrotation Xrotation Yrotation
                  JOINT LeftHandMiddle2
                  {
                    OFFSET 3.000000 0.000000 0.000000
                    CHANNELS 3 Zrotation Xrotation Yrotation
                    JOINT LeftHandMiddle3
                    {
                      OFFSET 2.000000 0.000000 0.000000
                      CHANNELS 3 Zrotation Xrotation Yrotation
                      End Site
                      {
                        OFFSET 1.600000 0.000000 0.000000
                      }
                    }
                  }
                }
                JOINT LeftHandRing1
                {
                  OFFSET 7.100000 -1.000000 0.400000
                  CHANNELS 3 Zrotation Xrotation Yrotation
                  JOINT LeftHandRing2
                  {
                    OFFSET 2.600000 0.000000 0.000000
                    CHANNELS 3 Zrotation Xrotation Yrotation
                    JOINT LeftHandRing3
                    {
                      OFFSET 1.600000 0.000000 0.000000
                      CHANNELS 3 Zrotation Xrotation Yrotation
                      End Site
                      {
                        OFFSET 1.300000 0.000000 0.000000
                      }
                    }
                  }
                }
                JOINT LeftHandPinky1
                {
                  OFFSET 6.500000 -2.000000 0.500000
                  CHANNELS 3 Zrotation Xrotation Yrotation
                  JOINT LeftHandPinky2
                  {
                    OFFSET 1.900000 0.000000 0.000000
                    CHANNELS 3 Zrotation Xrotation Yrotation
                    JOINT LeftHandPinky3
                    {
                      OFFSET 1.400000 0.000000 0.000000
                      CHANNELS 3 Zrotation Xrotation Yrotation
                      End Site
                      {
                        OFFSET 1.300000 0.000000 0.000000
                      }
                    }
                  }
                }
              }
            }
          }
        }
        JOINT RightShoulder
        {
          OFFSET -6.000000 8.000000 0.000000
          CHANNELS 3 Zrotation Xrotation Yrotation
          JOINT RightArm
          {
            OFFSET -12.000000 0.000000 0.000000
            CHANNELS 3 Zrotation Xrotation Yrotation
            JOINT RightForeArm
            {
              OFFSET -24.000000 0.000000 0.000000
              CHANNELS 3 Zrotation Xrotation Yrotation
              JOINT RightHand
              {
                OFFSET -22.000000 0.000000 0.000000
                CHANNELS 3 Zrotation Xrotation Yrotation
                JOINT RightHandThumb1
                {
                  OFFSET -1.800000 -1.400000 0.500000
                  CHANNELS 3 Zrotation Xrotation Yrotation
                  JOINT RightHandThumb2
                  {
                    OFFSET -2.400000 0.000000 0.000000
                    CHANNELS 3 Zrotation Xrotation Yrotation
                    JOINT RightHandThumb3
                    {
                      OFFSET -1.900000 0.000000 0.000000
                      CHANNELS 3 Zrotation Xrotation Yrotation
                      End Site
                      {
                        OFFSET -1.600000 0.000000 0.000000
                      }
                    }
                  }
                }
                JOINT RightHandIndex1
                {
                  OFFSET -6.600000 1.200000 0.300000
                  CHANNELS 3 Zrotation Xrotation Yrotation
                  JOINT RightHandIndex2
                  {
                    OFFSET -2.000000 0.000000 0.000000
                    CHANNELS 3 Zrotation Xrotation Yrotation
                    JOINT RightHandIndex3
                    {
                      OFFSET -1.200000 0.000000 0.000000
                      CHANNELS 3 Zrotation Xrotation Yrotation
                      End Site
                      {
                        OFFSET -1.000000 0.000000 0.000000
                      }
                    }
                  }
                }
                JOINT RightHandMiddle1
                {
                  OFFSET -7.200000 0.000000 0.300000
                  CHANNELS 3 Zrotation Xrotation Yrotation
                  JOINT RightHandMiddle2
                  {
                    OFFSET -3.000000 0.000000 0.000000
                    CHANNELS 3 Zrotation Xrotation Yrotation
                    JOINT RightHandMiddle3
                    {
                      OFFSET -2.000000 0.000000 0.000000
                      CHANNELS 3 Zrotation Xrotation Yrotation
                      End Site
                      {
                        OFFSET -1.600000 0.000000 0.000000
                      }
                    }
                  }
                }
                JOINT RightHandRing1
                {
                  OFFSET -7.100000 -1.000000 0.400000
                  CHANNELS 3 Zrotation Xrotation Yrotation
                  JOINT RightHandRing2
                  {
                    OFFSET -2.600000 0.000000 0.000000
                    CHANNELS 3 Zrotation Xrotation Yrotation
                    JOINT RightHandRing3
                    {
                      OFFSET -1.600000 0.000000 0.000000
                      CHANNELS 3 Zrotation Xrotation Yrotation
                      End Site
                      {
                        OFFSET -1.300000 0.000000 0.000000
                      }
                    }
                  }
                }
                JOINT RightHandPinky1
                {
                  OFFSET -6.500000 -2.000000 0.500000
                  CHANNELS 3 Zrotation Xrotation Yrotation
                  JOINT RightHandPinky2
                  {
                    OFFSET -1.900000 0.000000 0.000000
                    CHANNELS 3 Zrotation Xrotation Yrotation
                    JOINT RightHandPinky3
                    {
                      OFFSET -1.400000 0.000000 0.000000
                      CHANNELS 3 Zrotation Xrotation Yrotation
                      End Site
                      {
                        OFFSET -1.300000 0.000000 0.000000
                      }
                    }
                  }
                }
              }
            }
          }
        }
      }
    }
  }
  JOINT LeftUpLeg
  {
    OFFSET 10.000000 -5.000000 0.000000
    CHANNELS 3 Zrotation Xrotation Yrotation
    JOINT LeftLeg
    {
      OFFSET 0.000000 -42.000000 0.000000
      CHANNELS 3 Zrotation Xrotation Yrotation
      JOINT LeftFoot
      {
        OFFSET 0.000000 -42.000000 4.000000
        CHANNELS 3 Zrotation Xrotation Yrotation
        End Site
        {
          OFFSET 0.000000 0.000000 12.000000
        }
      }
    }
  }
  JOINT RightUpLeg
  {
    OFFSET -10.000000 -5.000000 0.000000
    CHANNELS 3 Zrotation Xrotation Yrotation
    JOINT RightLeg
    {
      OFFSET 0.000000 -42.000000 0.000000
      CHANNELS 3 Zrotation Xrotation Yrotation
      JOINT RightFoot
      {
        OFFSET 0.000000 -42.000000 4.000000
        CHANNELS 3 Zrotation Xrotation Yrotation
        End Site
        {
          OFFSET 0.000000 0.000000 12.000000
        }
      }
    }
  }
}
MOTION
Frames: 4
Frame Time: 0.033333
0.0000 95.0000 0.0000 0.0000 0.0000 0.0000 0.0000 0.0000 0.0000 0.0000 0.0000 0.0000 0.0000 0.0000 0.0000 0.0000 0.0000 0.0000 0.0000 0.0000 0.0000 0.0000 0.0000 0.0000 -16.5028 -3.5626 -24.2076 80.7555 27.8751 -3.2248 -377.8832 19.0779 18.7194 58.9275 -13.7472 -10.5669 45.2188 0.0000 0.0000 9.9186 0.0000 0.0000 -55.0745 -7.3315 -31.1500 68.4633 0.0000 0.0000 12.0950 0.0000 0.0000 -61.4173 -24.4479 -44.8505 52.9625 0.0000 0.0000 14.6140 0.0000 0.0000 -62.9922 -28.4697 -39.6223 51.3105 0.0000 0.0000 15.9573 0.0000 0.0000 -58.8037 -24.2938 -29.0299 57.3597 0.0000 0.0000 13.9154 0.0000 0.0000 0.0000 0.0000 0.0000 30.0826 -10.9613 39.2987 -75.3837 41.1484 -1.1127 -88.8859 -36.8059 -255.3449 -37.9551 -2.5034 -18.0186 43.3906 0.0000 0.0000 37.3932 0.0000 0.0000 127.7418 14.0828 -4.7126 39.5498 0.0000 0.0000 52.4846 0.0000 0.0000 127.2707 10.3499 -0.3684 41.5810 0.0000 0.0000 84.2662 0.0000 0.0000 123.1531 8.5315 2.8123 52.9749 0.0000 0.0000 90.6819 0.0000 0.0000 116.8974 5.2557 6.0422 55.2540 0.0000 0.0000 91.2136 0.0000 0.0000 0.0000 0.0000 0.0000 0.0000 0.0000 0.0000 0.0000 0.0000 0.0000 0.0000 0.0000 0.0000 0.0000 0.0000 0.0000 0.0000 0.0000 0.0000
0.0000 95.0000 0.0000 0.0000 0.0000 0.0000 0.0000 0.0000 0.0000 0.0000 0.0000 0.0000 0.0000 0.0000 0.0000 0.0000 0.0000 0.0000 0.0000 0.0000 0.0000 0.0000 0.0000 0.0000 -24.6516 -5.2146 -23.5442 62.5626 35.7984 -18.1968 -456.8584 42.6290 -61.5361 45.2292 -21.7679 -48.5642 37.1268 0.0000 0.0000 9.6514 0.0000 0.0000 -9.6352 5.3599 -49.2126 19.6282 0.0000 0.0000 4.2485 0.0000 0.0000 6.9992 4.2336 -67.0684 45.2965 0.0000 0.0000 49.5227 0.0000 0.0000 12.7493 -2.9369 -70.9982 54.1253 0.0000 0.0000 48.9499 0.0000 0.0000 20.2372 -11.0017 -71.6024 50.1764 0.0000 0.0000 52.5309 0.0000 0.0000 0.0000 0.0000 0.0000 39.8319 -13.4123 35.9599 -59.0804 45.4682 11.2940 5.2308 -6.5132 -334.2245 9.7156 -11.1737 15.6671 25.3848 0.0000 0.0000 4.8882 0.0000 0.0000 85.4677 -11.4666 24.3716 15.4987 0.0000 0.0000 20.5257 0.0000 0.0000 79.2896 -15.8984 23.9035 7.8539 0.0000 0.0000 168.9341 0.0000 0.0000 71.1214 -16.3969 22.6614 29.5667 0.0000 0.0000 149.4529 0.0000 0.0000 63.1289 -16.4012 20.4271 23.4596 0.0000 0.0000 153.0304 0.0000 0.0000 0.0000 0.0000 0.0000 0.0000 0.0000 0.0000 0.0000 0.0000 0.0000 0.0000 0.0000 0.0000 0.0000 0.0000 0.0000 0.0000 0.0000 0.0000
0.0000 95.0000 0.0000 0.0000 0.0000 0.0000 0.0000 0.0000 0.0000 0.0000 0.0000 0.0000 0.0000 0.0000 0.0000 0.0000 0.0000 0.0000 0.0000 0.0000 0.0000 0.0000 0.0000 0.0000 -30.1118 -6.4064 -23.5055 37.1139 33.6113 -32.3063 -472.3558 17.6734 -98.6152 57.2774 -14.0150 -13.5295 26.8712 0.0000 0.0000 11.9274 0.0000 0.0000 3.2853 3.7163 -18.2519 5.6759 0.0000 0.0000 6.8294 0.0000 0.0000 27.3302 4.6324 -23.6626 84.1323 0.0000 0.0000 73.0812 0.0000 0.0000 35.6872 2.7262 -26.9173 98.4169 0.0000 0.0000 62.5826 0.0000 0.0000 45.5890 -0.3582 -28.6430 73.4389 0.0000 0.0000 84.6731 0.0000 0.0000 0.0000 0.0000 0.0000 45.0014 -14.0517 33.1380 -42.6699 43.5022 21.6666 82.5210 26.7830 -313.8236 -44.2288 -15.0294 20.5633 16.4651 0.0000 0.0000 2.7370 0.0000 0.0000 11.2994 2.1787 20.5375 1.5914 0.0000 0.0000 9.4682 0.0000 0.0000 1.1162 -0.2479 29.8147 44.0653 0.0000 0.0000 100.4660 0.0000 0.0000 -9.4440 -2.3405 31.3321 70.4328 0.0000 0.0000 85.4249 0.0000 0.0000 -19.6148 -5.5080 31.8094 64.3893 0.0000 0.0000 80.2299 0.0000 0.0000 0.0000 0.0000 0.0000 0.0000 0.0000 0.0000 0.0000 0.0000 0.0000 0.0000 0.0000 0.0000 0.0000 0.0000 0.0000 0.0000 0.0000 0.0000
0.0000 95.0000 0.0000 0.0000 0.0000 0.0000 0.0000 0.0000 0.0000 0.0000 0.0000 0.0000 0.0000 0.0000 0.0000 0.0000 0.0000 0.0000 0.0000 0.0000 0.0000 0.0000 0.0000 0.0000 -34.4481 -7.7755 -24.7287 16.6563 26.6276 -39.4495 -509.0675 16.2585 -115.4320 68.7583 -14.4133 -7.2116 60.8567 0.0000 0.0000 51.2469 0.0000 0.0000 4.5988 1.8225 -9.1039 3.3317 0.0000 0.0000 5.8299 0.0000 0.0000 26.5997 1.4660 -10.9680 68.3960 0.0000 0.0000 89.4692 0.0000 0.0000 35.4872 0.3788 -13.6908 65.7552 0.0000 0.0000 88.7439 0.0000 0.0000 42.8248 -1.9719 -14.4555 58.1777 0.0000 0.0000 96.2456 0.0000 0.0000 0.0000 0.0000 0.0000 49.9965 -14.7189 30.9657 -28.8665 40.3738 28.9852 36.0391 10.1755 -264.3787 -32.4634 -3.9957 -9.1311 21.3281 0.0000 0.0000 17.4897 0.0000 0.0000 56.7019 1.7832 2.3772 52.1662 0.0000 0.0000 108.3412 0.0000 0.0000 46.4942 1.4371 1.4272 91.5539 0.0000 0.0000 66.2679 0.0000 0.0000 34.6312 1.0966 2.1275 88.0460 0.0000 0.0000 69.0533 0.0000 0.0000 19.2121 -0.2970 3.7185 14.9234 0.0000 0.0000 13.1177 0.0000 0.0000 0.0000 0.0000 0.0000 0.0000 0.0000 0.0000 0.0000 0.0000 0.0000 0.0000 0.0000 0.0000 0.0000 0.0000 0.0000 0.0000 0.0000 0.0000
